<svg width="200" height="100" viewBox="0 0 200 100" xmlns="http://www.w3.org/2000/svg">
    <style>
        .floral {
            fill: #d4b98c;
        }
    </style>
    <g class="floral">
        <path d="M100,10 C120,10 140,20 160,40 C140,20 120,10 100,10 C80,10 60,20 40,40 C60,20 80,10 100,10 Z"/>
        <path d="M100,30 C115,30 130,40 145,55 C130,40 115,30 100,30 C85,30 70,40 55,55 C70,40 85,30 100,30 Z"/>
        <circle cx="100" cy="20" r="5"/>
        <path d="M40,40 C60,60 80,70 100,70 C120,70 140,60 160,40" fill="none" stroke="#d4b98c" stroke-width="2"/>
    </g>
</svg>
